<svg width="29" height="30" viewBox="0 0 29 30" fill="none" xmlns="http://www.w3.org/2000/svg">
<path d="M9.23995 9.87463C10.8399 8.43463 11.1599 6.03463 9.95994 4.19463C8.83994 2.67463 6.67995 2.43463 5.23995 3.55463C5.07995 3.63463 4.91995 3.71463 4.83995 3.87463C3.23995 5.31463 2.91995 7.71463 4.11995 9.55463C5.23994 11.0746 7.39995 11.3146 8.83995 10.1946C8.91995 10.1146 9.07995 9.95463 9.23995 9.87463Z" fill="white"/>
<path d="M13 7.07473C13.96 8.75473 16.12 9.39473 17.8 8.51473C17.96 8.43473 18.12 8.35473 18.28 8.19473C20.2 6.99473 20.92 4.51473 19.96 2.43473C19 0.754726 16.84 0.114726 15.16 0.994726C15 1.07473 14.84 1.15473 14.68 1.31473C12.84 2.51473 12.12 4.99473 13 7.07473Z" fill="white"/>
<path d="M18.2 22.1146C17.72 20.4346 17.96 20.0346 18.36 17.3946C18.52 15.5546 17.8 13.7146 16.36 12.5146C14.84 11.3946 12.92 11.0746 11.16 11.7146C8.68001 12.6746 8.28001 13.0746 6.60001 12.9146C2.68001 12.5946 0.0400141 14.5146 0.440014 18.0346C0.680014 19.5546 1.48001 20.8346 2.68001 21.7146C3.64001 22.2746 4.68001 22.6746 5.72001 23.0746C6.28001 23.3146 6.84001 23.6346 7.40001 24.0346C7.88001 24.4346 8.36001 24.9146 8.68001 25.3946C9.24001 26.3546 9.96001 27.2346 10.68 28.0346C11.8 28.9946 13.24 29.5546 14.76 29.3946C18.2 28.8346 19.4 25.7946 18.2 22.1146Z" fill="white"/>
<path d="M26.0399 16.8345C23.9599 16.1145 21.7199 16.9945 20.6799 18.9145C19.6399 20.5145 20.0399 22.5945 21.6399 23.6345C21.7999 23.7145 21.9599 23.7945 22.1199 23.8745C24.1999 24.5945 26.4399 23.7145 27.4799 21.7945C28.5199 20.1945 28.1199 18.1145 26.5199 17.0745C26.3599 16.9945 26.1999 16.9145 26.0399 16.8345Z" fill="white"/>
<path d="M22.44 14.5144C24.68 14.9144 26.92 13.6344 27.64 11.5544C28.44 9.79444 27.64 7.63444 25.88 6.83444C25.72 6.75444 25.56 6.67444 25.32 6.67444C23.08 6.27444 20.84 7.47444 20.12 9.63444C19.32 11.3944 20.12 13.5544 21.88 14.3544C22.12 14.4344 22.28 14.4344 22.44 14.5144Z" fill="white"/>
</svg>
